<svg width="834" height="420" viewBox="0 0 834 420" fill="none" xmlns="http://www.w3.org/2000/svg">
<path d="M209 2L105 106L313 314L209 418L105 314L313 106L209 2Z" stroke="black" stroke-width="2"/>
<path d="M625 2L521 106L729 314L625 418L521 314L729 106L625 2Z" stroke="black" stroke-width="2"/>
<path d="M300 301L391 210L300 119" stroke="black" stroke-dasharray="2 2"/>
<path d="M287 288L365 210L287 132" stroke="black" stroke-dasharray="2 2"/>
<path d="M274 275L339 210L274 145" stroke="black" stroke-dasharray="2 2"/>
<path d="M261 158L313 210L261 262" stroke="black" stroke-dasharray="2 2"/>
<path d="M248 249L287 210L248 171" stroke="black" stroke-dasharray="2 2"/>
<path d="M235 236L261 210L235 184" stroke="black" stroke-dasharray="2 2"/>
<path d="M222 223L235 210L222 197" stroke="black" stroke-dasharray="2 2"/>
<path d="M313 106L417 210L313 314" stroke="black" stroke-dasharray="2 2"/>
<path d="M118 301L27 210L118 119" stroke="black" stroke-dasharray="2 2"/>
<path d="M131 288L53 210L131 132" stroke="black" stroke-dasharray="2 2"/>
<path d="M144 275L79 210L144 145" stroke="black" stroke-dasharray="2 2"/>
<path d="M157 158L105 210L157 262" stroke="black" stroke-dasharray="2 2"/>
<path d="M170 249L131 210L170 171" stroke="black" stroke-dasharray="2 2"/>
<path d="M183 236L157 210L183 184" stroke="black" stroke-dasharray="2 2"/>
<path d="M196 223L183 210L196 197" stroke="black" stroke-dasharray="2 2"/>
<path d="M105 106L1 210L105 314" stroke="black" stroke-dasharray="2 2"/>
<path d="M716 301L807 210L716 119" stroke="black" stroke-dasharray="2 2"/>
<path d="M703 288L781 210L703 132" stroke="black" stroke-dasharray="2 2"/>
<path d="M690 275L755 210L690 145" stroke="black" stroke-dasharray="2 2"/>
<path d="M677 158L729 210L677 262" stroke="black" stroke-dasharray="2 2"/>
<path d="M664 249L703 210L664 171" stroke="black" stroke-dasharray="2 2"/>
<path d="M651 236L677 210L651 184" stroke="black" stroke-dasharray="2 2"/>
<path d="M638 223L651 210L638 197" stroke="black" stroke-dasharray="2 2"/>
<path d="M729 106L833 210L729 314" stroke="black" stroke-dasharray="2 2"/>
<path d="M534 301L443 210L534 119" stroke="black" stroke-dasharray="2 2"/>
<path d="M547 288L469 210L547 132" stroke="black" stroke-dasharray="2 2"/>
<path d="M560 275L495 210L560 145" stroke="black" stroke-dasharray="2 2"/>
<path d="M573 158L521 210L573 262" stroke="black" stroke-dasharray="2 2"/>
<path d="M586 249L547 210L586 171" stroke="black" stroke-dasharray="2 2"/>
<path d="M599 236L573 210L599 184" stroke="black" stroke-dasharray="2 2"/>
<path d="M612 223L599 210L612 197" stroke="black" stroke-dasharray="2 2"/>
<path d="M521 106L417 210L521 314" stroke="black" stroke-dasharray="2 2"/>
</svg>
